<svg xmlns="http://www.w3.org/2000/svg" viewBox="0 0 24 24" role="img" aria-label="Instagram">
  <path fill="#ffffff" d="M12 2.163c3.204 0 3.584.012 4.849.07 1.366.062 2.633.336 3.608 1.311.975.975 1.249 2.242 1.311 3.608.058 1.265.07 1.645.07 4.849s-.012 3.584-.07 4.849c-.062 1.366-.336 2.633-1.311 3.608-.975.975-2.242 1.249-3.608 1.311-1.265.058-1.645.07-4.849.07s-3.584-.012-4.849-.07c-1.366-.062-2.633-.336-3.608-1.311-.975-.975-1.249-2.242-1.311-3.608C2.175 15.585 2.163 15.205 2.163 12s.012-3.584.07-4.849c.062-1.366.336-2.633 1.311-3.608.975-.975 2.242-1.249 3.608-1.311 1.265-.058 1.645-.07 4.849-.07zm0-2.163C8.736 0 8.333.014 7.052.072 5.771.13 4.667.409 3.678 1.398 2.689 2.387 2.41 3.491 2.352 4.772.014 8.333 0 8.736 0 12c0 3.264.014 3.667.072 4.948.058 1.281.337 2.385 1.326 3.374.989.989 2.093 1.268 3.374 1.326C8.333 23.986 8.736 24 12 24c3.264 0 3.667-.014 4.948-.072 1.281-.058 2.385-.337 3.374-1.326.989-.989 1.268-2.093 1.326-3.374.058-1.281.072-1.684.072-4.948 0-3.264-.014-3.667-.072-4.948-.058-1.281-.337-2.385-1.326-3.374C19.333.409 18.229.13 16.948.072 15.667.014 15.264 0 12 0z"/>
  <path fill="#ffffff" d="M12 5.838A6.162 6.162 0 1 0 12 18.162 6.162 6.162 0 1 0 12 5.838zm0 10.162a4 4 0 1 1 0-8 4 4 0 1 1 0 8z"/>
  <circle cx="18.406" cy="5.594" r="1.44" fill="#ffffff"/>
</svg>
