<svg xmlns="http://www.w3.org/2000/svg" viewBox="0 0 24 24" role="img" aria-label="LinkedIn">
  <path fill="#ffffff" d="M20.451 20.451h-3.553v-5.569c0-1.328-.026-3.035-1.849-3.035-1.85 0-2.134 1.445-2.134 2.939v5.665H9.363V9h3.412v1.561h.049c.475-.9 1.637-1.85 3.368-1.85 3.599 0 4.259 2.368 4.259 5.451v6.289zM5.337 7.433a2.063 2.063 0 1 1 0-4.126 2.063 2.063 0 0 1 0 4.126zM7.119 20.451H3.555V9h3.564v11.451zM22.225 0H1.771A1.771 1.771 0 0 0 0 1.771v20.457C0 23.205.794 24 1.771 24h20.451A1.778 1.778 0 0 0 24 22.228V1.771A1.778 1.778 0 0 0 22.225 0z"/>
</svg>
